# xmcd
#
# Track frame offsets:
#	150
#	17775
#	32992
#	47775
#	61373
#	78579
#	91024
#	104400
#	122600
#	134262
#
# Disc length: 1968 seconds
#
# Revision: 2
# Processed by: cddbd v1.5.1PL0 Copyright (c) Steve Scherf et al.
# Submitted via: MusicWizard 7.1.1b
#
DISCID=8007ae0a
DTITLE=Severine Browne - New Improved
DYEAR=1974
DGENRE=Country
TTITLE0=Love Notes Fromes Denver
TTITLE1=Tickle My Lips
TTITLE2=Romance
TTITLE3=More Dreams In The Sea
TTITLE4=Confessions Of A Madman
TTITLE5=Love Song
TTITLE6=The Sweet Sound Of Your Song
TTITLE7=Do, Magnolia, Do
TTITLE8=Cooking School
TTITLE9=Beginning To Believe
EXTD=Kommentar: (c)1974 Motown Records Corp.       M6-779S1\nSongwriter: All songs written by Seve
EXTD=rine Browne, exept "Beginning To Believe" written by Severine Browne and Patti Dahlstrom - and
EXTD="Romance" written by Jules Shear.\nKomponist: All songs published thru Jobete Music Company,
EXTD=Inc (ASCAP), exept "Romance" published thru Prodigal Son Music (BMI).\nArrangement: Produced
EXTD=by Larry Murray\n
EXTT0=
EXTT1=
EXTT2=
EXTT3=
EXTT4=
EXTT5=
EXTT6=
EXTT7=
EXTT8=
EXTT9=
PLAYORDER=
